# xmcd
#
# Track frame offsets:
#	150
#	16898
#	28684
#	45121
#	62849
#	78205
#	95034
#	109973
#	123988
#	142152
#	155685
#	170547
#
# Disc length: 2494 seconds
#
# Revision: 2
# Processed by: cddbd v1.5.2PL0 Copyright (c) Steve Scherf et al.
# Submitted via: audiograbber 1.83.01
#
DISCID=9b09bc0c
DTITLE=Various Artist - CDX 288
DYEAR=2002
DGENRE=Country
TTITLE0=Diamond Rio - Beautiful Mess
TTITLE1=Freddy Fender - Before the next teardrop falls
TTITLE2=Aaron Tippin - I'll take love over money
TTITLE3=Bellamy Brothers - Let's roll America
TTITLE4=Kasey Chambers - Not pretty enough
TTITLE5=Blake Shelton - Ol' Red
TTITLE6=Bellamy Brothers - Over the line
TTITLE7=Tracy Byrd - Ten Rounds with Jose Cuervo
TTITLE8=Joe Nichols - The Impossible
TTITLE9=Kelly McGuire - Club Blonde
TTITLE10=Vince Hatfield - Lonely texas night
TTITLE11=Charlene Carole - Where do i go from here
EXTD=
EXTT0=
EXTT1=
EXTT2=
EXTT3=
EXTT4=
EXTT5=
EXTT6=
EXTT7=
EXTT8=
EXTT9=
EXTT10=
EXTT11=
PLAYORDER=
